<?xml version="1.0" encoding="UTF-8"?><svg xmlns="http://www.w3.org/2000/svg" xmlns:xlink="http://www.w3.org/1999/xlink" height="318.1" preserveAspectRatio="xMidYMid meet" version="1.0" viewBox="78.1 96.9 355.9 318.1" width="355.9" zoomAndPan="magnify"><g fill="#211d1d" id="change1_1"><path d="M 178.460938 271.480469 L 88.679688 219.847656 L 178.460938 163.015625 Z M 212.15625 104.382812 C 210.617188 118.214844 199.6875 129.242188 185.910156 130.949219 L 185.910156 104.382812 Z M 326.089844 130.949219 C 312.3125 129.242188 301.386719 118.214844 299.84375 104.382812 L 326.089844 104.382812 Z M 423.3125 219.855469 L 333.539062 271.480469 L 333.539062 163.214844 Z M 297.195312 300.96875 L 426.496094 226.613281 L 426.496094 403.628906 Z M 222.722656 304.203125 L 289.285156 304.195312 L 419.539062 407.613281 L 92.460938 407.613281 Z M 185.910156 138.449219 C 203.800781 136.679688 218.042969 122.324219 219.636719 104.382812 L 292.363281 104.382812 C 293.960938 122.324219 308.199219 136.679688 326.089844 138.449219 L 326.089844 275.761719 L 289.59375 296.75 L 222.417969 296.753906 L 185.910156 275.761719 Z M 85.503906 226.613281 L 214.8125 300.972656 L 85.503906 403.628906 Z M 433.941406 219.664062 C 433.941406 217.996094 432.847656 216.585938 431.335938 216.109375 L 333.539062 154.40625 L 333.539062 100.660156 C 333.539062 98.605469 331.871094 96.9375 329.816406 96.9375 L 182.183594 96.9375 C 180.128906 96.9375 178.460938 98.605469 178.460938 100.660156 L 178.460938 154.203125 L 80.660156 216.109375 C 79.152344 216.585938 78.058594 217.996094 78.058594 219.664062 L 78.058594 411.339844 C 78.058594 411.421875 78.066406 411.5 78.070312 411.578125 C 78.070312 411.605469 78.070312 411.628906 78.074219 411.65625 C 78.09375 411.875 78.132812 412.085938 78.183594 412.289062 C 78.191406 412.316406 78.199219 412.339844 78.203125 412.367188 C 78.265625 412.582031 78.34375 412.785156 78.441406 412.980469 C 78.453125 413 78.460938 413.023438 78.472656 413.042969 C 78.582031 413.25 78.707031 413.445312 78.847656 413.628906 C 78.855469 413.636719 78.859375 413.644531 78.863281 413.652344 C 78.867188 413.660156 78.871094 413.660156 78.878906 413.664062 C 79.023438 413.847656 79.1875 414.015625 79.363281 414.167969 C 79.378906 414.179688 79.390625 414.191406 79.40625 414.207031 C 79.578125 414.351562 79.769531 414.480469 79.96875 414.589844 C 79.980469 414.597656 79.992188 414.605469 80.003906 414.613281 C 80.207031 414.722656 80.417969 414.8125 80.636719 414.882812 C 80.648438 414.886719 80.65625 414.890625 80.664062 414.894531 C 80.875 414.957031 81.089844 415.003906 81.316406 415.03125 C 81.335938 415.03125 81.355469 415.039062 81.375 415.039062 C 81.507812 415.054688 81.644531 415.0625 81.78125 415.0625 L 430.21875 415.0625 C 430.355469 415.0625 430.484375 415.054688 430.617188 415.039062 C 430.644531 415.039062 430.667969 415.03125 430.695312 415.03125 C 430.800781 415.015625 430.90625 415 431.007812 414.976562 C 431.046875 414.96875 431.082031 414.957031 431.117188 414.949219 C 431.207031 414.925781 431.296875 414.902344 431.386719 414.875 C 431.429688 414.859375 431.472656 414.84375 431.519531 414.824219 C 431.59375 414.796875 431.671875 414.765625 431.746094 414.734375 C 431.796875 414.710938 431.84375 414.6875 431.894531 414.660156 C 431.960938 414.628906 432.023438 414.59375 432.089844 414.554688 C 432.140625 414.527344 432.191406 414.496094 432.238281 414.464844 C 432.300781 414.421875 432.359375 414.382812 432.421875 414.339844 C 432.464844 414.304688 432.511719 414.269531 432.558594 414.234375 C 432.636719 414.167969 432.714844 414.101562 432.785156 414.03125 C 432.808594 414.011719 432.828125 413.996094 432.847656 413.976562 C 432.945312 413.878906 433.035156 413.777344 433.117188 413.671875 C 433.125 413.664062 433.128906 413.660156 433.136719 413.652344 C 433.140625 413.644531 433.144531 413.636719 433.152344 413.628906 C 433.292969 413.445312 433.421875 413.25 433.527344 413.042969 C 433.539062 413.023438 433.546875 413 433.558594 412.980469 C 433.652344 412.785156 433.734375 412.582031 433.796875 412.367188 C 433.804688 412.339844 433.808594 412.316406 433.816406 412.289062 C 433.867188 412.085938 433.90625 411.875 433.925781 411.65625 C 433.929688 411.628906 433.929688 411.605469 433.929688 411.578125 C 433.933594 411.5 433.941406 411.421875 433.941406 411.339844 L 433.941406 219.664062" fill="inherit"/><path d="M 256 168.039062 C 284.75 168.039062 308.136719 191.429688 308.136719 220.179688 C 308.136719 248.925781 284.75 272.316406 256 272.316406 C 227.25 272.316406 203.863281 248.925781 203.863281 220.179688 C 203.863281 191.429688 227.25 168.039062 256 168.039062 Z M 256 279.761719 C 288.855469 279.761719 315.585938 253.03125 315.585938 220.179688 C 315.585938 187.324219 288.855469 160.59375 256 160.59375 C 223.144531 160.59375 196.414062 187.324219 196.414062 220.179688 C 196.414062 253.03125 223.144531 279.761719 256 279.761719" fill="inherit"/><path d="M 252.277344 251.25 L 252.277344 254.996094 C 252.277344 257.050781 253.941406 258.71875 256 258.71875 C 258.058594 258.71875 259.722656 257.050781 259.722656 254.996094 L 259.722656 251.25 C 269.078125 249.5 276.183594 241.277344 276.183594 231.417969 C 276.183594 220.289062 267.128906 211.234375 256 211.234375 C 250.878906 211.234375 246.710938 207.066406 246.710938 201.945312 C 246.710938 196.824219 250.878906 192.65625 256 192.65625 C 261.121094 192.65625 265.289062 196.824219 265.289062 201.945312 C 265.289062 204.003906 266.953125 205.671875 269.011719 205.671875 C 271.066406 205.671875 272.734375 204.003906 272.734375 201.945312 C 272.734375 194 267.164062 187.332031 259.722656 185.632812 L 259.722656 181.816406 C 259.722656 179.761719 258.058594 178.09375 256 178.09375 C 253.941406 178.09375 252.277344 179.761719 252.277344 181.816406 L 252.277344 185.632812 C 244.835938 187.332031 239.265625 194 239.265625 201.945312 C 239.265625 211.175781 246.773438 218.683594 256 218.683594 C 263.023438 218.683594 268.734375 224.394531 268.734375 231.417969 C 268.734375 238.441406 263.023438 244.152344 256 244.152344 C 248.976562 244.152344 243.265625 238.441406 243.265625 231.417969 C 243.265625 229.363281 241.597656 227.695312 239.539062 227.695312 C 237.484375 227.695312 235.816406 229.363281 235.816406 231.417969 C 235.816406 241.277344 242.921875 249.5 252.277344 251.25" fill="inherit"/></g></svg>